<?xml version="1.0" standalone="no"?>
<!DOCTYPE svg PUBLIC "-//W3C//DTD SVG 1.1//EN" "http://www.w3.org/Graphics/SVG/1.1/DTD/svg11.dtd" >
<svg>
<metadata>
Created by FontForge 20090622 at Mon Apr 24 16:18:38 2017
 By deploy user
Digitized Data &#194;&#169; 1990 The Monotype Corporation.  All rights reserved.
</metadata>
<defs>
<font id="ArialMTStd" horiz-adv-x="556" >
  <font-face 
    font-family="Arial MT Std"
    font-weight="400"
    font-stretch="normal"
    units-per-em="1000"
    panose-1="2 11 4 2 2 2 0 2 2 4"
    ascent="726"
    descent="-274"
    x-height="518"
    cap-height="716"
    bbox="-222 -230 1006 922"
    underline-thickness="50"
    underline-position="-50"
    unicode-range="U+0020-U+FB02"
  />
<missing-glyph horiz-adv-x="600" 
d="M62 0v665h475v-665h-475zM138 618l162 -243l161 243h-323zM110 575v-484l40 61l80 120l41 61zM490 575l-162 -242l162 -243v485zM461 48l-161 242l-162 -242h323z" />
    <glyph glyph-name="fi" unicode="fi" horiz-adv-x="500" 
d="M177 0h-88v452h-78v66h78v51q0 159 139 159q47 0 89 -11l-14 -75q-29 5 -58 5q-43 0 -55.5 -23.5t-12.5 -71.5v-34h101v-66h-101v-452zM432 0h-88v518h88v-518zM432 616h-88v100h88v-100z" />
    <glyph glyph-name="fl" unicode="fl" horiz-adv-x="500" 
d="M177 0h-88v452h-78v66h78v51q0 159 139 159q47 0 89 -11l-14 -75q-29 5 -58 5q-43 0 -55.5 -23.5t-12.5 -71.5v-34h101v-66h-101v-452zM431 0h-88v716h88v-716z" />
    <glyph glyph-name=".notdef" horiz-adv-x="600" 
d="M62 0v665h475v-665h-475zM138 618l162 -243l161 243h-323zM110 575v-484l40 61l80 120l41 61zM490 575l-162 -242l162 -243v485zM461 48l-161 242l-162 -242h323z" />
    <glyph glyph-name=".null" horiz-adv-x="0" 
 />
    <glyph glyph-name="nonmarkingreturn" horiz-adv-x="333" 
 />
    <glyph glyph-name="space" unicode=" " horiz-adv-x="278" 
 />
    <glyph glyph-name="exclam" unicode="!" horiz-adv-x="278" 
d="M189 0h-100v100h100v-100zM168 178h-57l-27 379v159h109v-159z" />
    <glyph glyph-name="quotedbl" unicode="&#x22;" horiz-adv-x="355" 
d="M125 462h-54l-24 137v117h100v-117zM286 462h-53l-24 137v117h100v-117z" />
    <glyph glyph-name="numbersign" unicode="#" 
d="M125 -12h-73l42 208h-82v73h97l36 176h-133v73h148l43 210h73l-43 -210h154l43 210h73l-42 -210h84v-73h-99l-36 -176h135v-73h-150l-42 -208h-74l42 208h-153zM219 445l-37 -176h154l36 176h-153z" />
    <glyph glyph-name="dollar" unicode="$" 
d="M303 -103h-52v88q-54 7 -91 22t-67 49q-49 56 -55 143l88 16q10 -73 43 -112t82 -44v280q-96 18 -147.5 69.5t-51.5 131.5q0 92 66 150q48 42 133 50v42h52v-42q83 -7 131.5 -52.5t59.5 -124.5l-91 -13q-15 99 -100 116v-254q75 -19 92 -27q117 -52 117 -182
q0 -90 -57.5 -151.5t-151.5 -65.5v-89zM251 423v244q-52 -8 -80.5 -41t-28.5 -81q0 -89 109 -122zM303 327v-268q51 6 85 43.5t34 94.5q0 56 -29 83.5t-90 46.5z" />
    <glyph glyph-name="percent" unicode="%" horiz-adv-x="889" 
d="M676 728l-390 -754h-73l392 754h71zM61 544q0 82 40.5 133t108.5 51q69 0 112.5 -49t43.5 -132q0 -96 -43 -147t-111 -51t-109.5 51t-41.5 144zM213 667q-76 0 -76 -130q0 -127 76 -127q77 0 77 130q0 127 -77 127zM524 169q0 83 41 133.5t108 50.5q70 0 113 -49t43 -132
q0 -96 -43 -147t-111 -51t-109.5 51t-41.5 144zM676 292q-76 0 -76 -130q0 -127 76 -127q77 0 77 130q0 127 -77 127z" />
    <glyph glyph-name="ampersand" unicode="&#x26;" horiz-adv-x="667" 
d="M133 569q0 65 51 112t127 47q72 0 119 -44.5t47 -108.5q0 -102 -135 -174l129 -164q22 43 34 100l91 -19q-24 -93 -64 -155q47 -63 112 -110l-59 -70q-52 33 -110 101q-85 -95 -202 -95q-102 0 -165.5 61t-63.5 153q0 127 169 208q-41 49 -60.5 84.5t-19.5 73.5zM420 154
l-161 200q-62 -37 -91.5 -72.5t-29.5 -78.5q0 -50 37.5 -94t95.5 -44q40 0 81.5 25t67.5 64zM258 503l39 -46q32 19 48.5 32t29 36t12.5 52q0 33 -23.5 56t-55.5 23q-37 0 -61 -22.5t-24 -52.5q0 -36 35 -78z" />
    <glyph glyph-name="quotesingle" unicode="'" horiz-adv-x="191" 
d="M123 462h-55l-22 134v120h100v-120z" />
    <glyph glyph-name="parenleft" unicode="(" horiz-adv-x="333" 
d="M296 -210h-63q-79 100 -126 222.5t-47 246.5q0 238 173 469h63q-35 -61 -51.5 -92.5t-43.5 -95.5t-39 -132.5t-12 -147.5q0 -237 146 -470z" />
    <glyph glyph-name="parenright" unicode=")" horiz-adv-x="333" 
d="M36 728h63q173 -230 173 -469q0 -124 -47 -247t-126 -222h-63q146 233 146 470q0 79 -12 147t-38.5 132t-43.5 96t-52 93z" />
    <glyph glyph-name="asterisk" unicode="*" horiz-adv-x="389" 
d="M130 423l-57 42q58 71 81 92q-61 12 -120 27l22 70q76 -27 113 -48q-9 95 -9 122h70q-1 -39 -11 -121q55 27 115 47l23 -70q-61 -20 -122 -27q32 -28 84 -92l-58 -42q-23 31 -67 105q-41 -74 -64 -105z" />
    <glyph glyph-name="plus" unicode="+" horiz-adv-x="584" 
d="M334 116h-83v195h-195v84h195v194h83v-194h195v-84h-195v-195z" />
    <glyph glyph-name="comma" unicode="," horiz-adv-x="278" 
d="M137 0h-50v100h100v-100q0 -106 -82 -141l-24 37q30 14 42.5 38.5t13.5 65.5z" />
    <glyph glyph-name="hyphen" unicode="-" horiz-adv-x="333" 
d="M302 215h-270v88h270v-88z" />
    <glyph glyph-name="period" unicode="." horiz-adv-x="278" 
d="M189 0h-100v100h100v-100z" />
    <glyph glyph-name="slash" unicode="/" horiz-adv-x="278" 
d="M71 -12h-71l207 740h71z" />
    <glyph glyph-name="zero" unicode="0" 
d="M44 353q0 366 233 366q234 0 234 -366q0 -365 -233 -365q-234 0 -234 365zM134 353q0 -147 34 -220t109 -73q76 0 110 73t34 220q0 148 -34 221t-110 73q-75 0 -109 -72.5t-34 -221.5z" />
    <glyph glyph-name="one" unicode="1" 
d="M375 719v-719h-88v560q-32 -30 -82 -60t-94 -46v85q73 34 128 82.5t79 97.5h57z" />
    <glyph glyph-name="two" unicode="2" 
d="M153 84h351v-84h-473v19q0 38 41.5 101t124.5 131q77 63 117.5 101t69.5 83t29 87q0 54 -38 89.5t-96 35.5q-63 0 -102 -38t-39 -107l-90 10q9 100 70 153.5t162 53.5q102 0 162.5 -56t60.5 -139q0 -56 -28.5 -108.5t-73 -95.5t-91 -81t-92 -79.5t-65.5 -75.5z" />
    <glyph glyph-name="three" unicode="3" 
d="M513 219q0 -105 -70.5 -168t-163.5 -63q-101 0 -163.5 55.5t-71.5 145.5l88 12q27 -141 140 -141q62 0 104.5 43t42.5 115q0 51 -39 90.5t-97 39.5q-29 0 -65 -9l9 77q60 -6 110 26t50 95q0 48 -33.5 79t-83.5 31q-53 0 -86.5 -33.5t-42.5 -95.5l-88 15q16 89 73 137.5
t142 48.5q89 0 149 -53.5t60 -127.5q0 -105 -98 -150q66 -16 100 -62.5t34 -106.5z" />
    <glyph glyph-name="four" unicode="4" 
d="M414 0h-88v171h-311v81l327 464h72v-464h96v-81h-96v-171zM101 252h225v323z" />
    <glyph glyph-name="five" unicode="5" 
d="M199 622l-38 -192q62 44 135 44q93 0 158 -64t65 -167q0 -110 -69 -182.5t-172 -72.5q-98 0 -161.5 53.5t-72.5 146.5l92 7q10 -66 47 -100.5t91 -34.5q66 0 108.5 49.5t42.5 131.5q0 68 -42.5 112.5t-110.5 44.5q-85 0 -130 -70l-82 11l69 367h356v-84h-286z" />
    <glyph glyph-name="six" unicode="6" 
d="M499 541l-87 -7q-26 113 -121 113q-75 0 -119 -70t-45 -208q63 95 176 95q85 0 147 -65t62 -166q0 -106 -62.5 -175.5t-159.5 -69.5q-83 0 -144 45.5t-86 125.5q-21 69 -21 176q0 190 66 287t189 97q85 0 139.5 -46.5t65.5 -131.5zM140 232q0 -72 42 -122t104 -50
q59 0 97.5 47.5t38.5 119.5q0 71 -38.5 116t-100.5 45q-60 0 -101.5 -43.5t-41.5 -112.5z" />
    <glyph glyph-name="seven" unicode="7" 
d="M400 622h-350v84h464v-68q-102 -108 -181.5 -282.5t-91.5 -355.5h-91q2 143 71.5 320t178.5 302z" />
    <glyph glyph-name="eight" unicode="8" 
d="M515 207q0 -95 -66 -157t-170 -62t-170 62t-66 157q0 68 34 116t102 65q-107 39 -107 146q0 80 57.5 132.5t148.5 52.5q92 0 149.5 -53.5t57.5 -133.5q0 -104 -105 -144q135 -45 135 -181zM162 537q0 -51 33 -83t84 -32q49 0 82.5 32t33.5 79q0 49 -33.5 81.5t-83.5 32.5
t-83 -32.5t-33 -77.5zM133 206q0 -63 42 -104.5t109 -41.5q58 0 99.5 40.5t41.5 103.5q0 64 -42.5 105t-103.5 41q-65 0 -105.5 -42t-40.5 -102z" />
    <glyph glyph-name="nine" unicode="9" 
d="M427 321v16q-26 -42 -72.5 -67.5t-96.5 -25.5q-92 0 -153 64.5t-61 168.5q0 106 63.5 174t161.5 68q67 0 122 -34t86 -96q38 -75 38 -218q0 -178 -54 -268q-69 -115 -199 -115q-86 0 -140.5 46.5t-64.5 131.5l85 8q11 -58 40.5 -86t84.5 -28q71 0 115.5 70.5t44.5 190.5z
M417 481q0 72 -39 119t-98 47q-61 0 -103.5 -50t-42.5 -122q0 -68 41 -111.5t102 -43.5q63 0 101.5 44.5t38.5 116.5z" />
    <glyph glyph-name="colon" unicode=":" horiz-adv-x="278" 
d="M189 0h-100v100h100v-100zM189 418h-100v100h100v-100z" />
    <glyph glyph-name="semicolon" unicode=";" horiz-adv-x="278" 
d="M137 0h-50v100h100v-100q0 -106 -82 -141l-24 37q30 14 42.5 38.5t13.5 65.5zM187 418h-100v100h100v-100z" />
    <glyph glyph-name="less" unicode="&#x3c;" horiz-adv-x="584" 
d="M529 111l-474 202v82l474 200v-87l-376 -154l376 -156v-87z" />
    <glyph glyph-name="equal" unicode="=" horiz-adv-x="584" 
d="M529 285v-81h-473v81h473zM529 504v-84h-473v84h473z" />
    <glyph glyph-name="greater" unicode="&#x3e;" horiz-adv-x="584" 
d="M529 395v-82l-474 -202v87l376 156l-376 154v87z" />
    <glyph glyph-name="question" unicode="?" 
d="M327 0h-100v100h100v-100zM317 176h-84q0 3 -0.5 12.5t-0.5 12.5q0 108 75 175q50 44 66 59.5t30.5 40.5t14.5 53q0 50 -40 88.5t-101 38.5q-56 0 -93 -37t-48 -108l-90 10q13 100 73 153.5t159 53.5q101 0 165.5 -55.5t64.5 -139.5q0 -15 -1.5 -29t-7.5 -28t-9.5 -23.5
t-14.5 -23.5l-16 -20.5t-20.5 -22t-21.5 -21l-26 -23.5t-26 -24q-21 -19 -32 -43.5t-13 -44t-3 -54.5z" />
    <glyph glyph-name="at" unicode="@" horiz-adv-x="1015" 
d="M497 529q92 0 147 -90l16 76h88l-70 -328q-15 -73 -15 -76q0 -12 10.5 -21.5t25.5 -9.5q51 0 119 79.5t68 190.5q0 133 -99.5 220.5t-250.5 87.5q-178 0 -292.5 -120.5t-114.5 -300.5q0 -177 111.5 -276t311.5 -99q117 0 206 39.5t136 107.5h88q-31 -63 -104 -119
t-163 -81q-69 -19 -164 -19q-233 0 -363.5 118.5t-130.5 320.5q0 204 127 350q132 151 356 151q186 0 302 -110.5t116 -263.5q0 -147 -92 -252t-199 -105q-55 0 -74 20.5t-23 60.5q-70 -81 -148 -81q-76 0 -127.5 62t-51.5 159q0 114 77.5 211.5t176.5 97.5zM333 212
q0 -64 30.5 -102.5t77.5 -38.5q62 0 118.5 73t56.5 171q0 66 -31.5 104t-82.5 38q-70 0 -119.5 -79t-49.5 -166z" />
    <glyph glyph-name="A" unicode="A" horiz-adv-x="667" 
d="M99 0h-101l275 716h102l293 -716h-108l-84 218h-299zM283 504l-78 -210h242l-74 198q-33 89 -51 149q-13 -67 -39 -137z" />
    <glyph glyph-name="B" unicode="B" horiz-adv-x="667" 
d="M346 0h-273v716h268q82 0 129 -20q49 -21 79.5 -65t30.5 -92q0 -107 -101 -158q65 -19 99.5 -65t34.5 -112q0 -59 -30 -106.5t-82 -72.5q-54 -25 -155 -25zM168 331v-247h178q53 0 76 6q44 11 68.5 41.5t24.5 75.5q0 47 -27.5 78.5t-75.5 40.5q-28 5 -79 5h-165zM168 632
v-217h155q37 0 55 1t41 9t39 24q28 28 28 73q0 37 -13.5 60.5t-41 33.5t-53.5 13t-67 3h-143z" />
    <glyph glyph-name="C" unicode="C" horiz-adv-x="722" 
d="M672 519l-94 -22q-48 150 -191 150q-113 0 -175.5 -75t-62.5 -209q0 -142 61.5 -218t171.5 -76q78 0 133 46t74 136l95 -24q-30 -115 -107.5 -177t-190.5 -62q-160 0 -244 98q-91 106 -91 277q0 167 93 266t245 99q107 0 181 -54.5t102 -154.5z" />
    <glyph glyph-name="D" unicode="D" horiz-adv-x="722" 
d="M337 0h-258v716h247q77 0 126.5 -9.5t95.5 -44.5q123 -93 123 -299q0 -141 -57 -233t-159 -118q-47 -12 -118 -12zM174 632v-548h152q69 0 111 12.5t73 48.5q63 72 63 219q0 153 -76 222q-33 30 -71.5 38t-101.5 8h-150z" />
    <glyph glyph-name="E" unicode="E" horiz-adv-x="667" 
d="M613 0h-534v716h518v-84h-423v-220h396v-84h-396v-244h439v-84z" />
    <glyph glyph-name="F" unicode="F" horiz-adv-x="611" 
d="M175 0h-95v716h483v-84h-388v-222h336v-84h-336v-326z" />
    <glyph glyph-name="G" unicode="G" horiz-adv-x="778" 
d="M623 281h-212v84h303v-265q-141 -112 -297 -112q-164 0 -264.5 100.5t-100.5 266.5q0 167 96 270t263 103q238 0 292 -212l-85 -24q-21 73 -59 106q-57 49 -146 49q-126 0 -194.5 -77t-68.5 -210q0 -138 71.5 -212.5t203.5 -74.5q48 0 107.5 23t90.5 51v134z" />
    <glyph glyph-name="H" unicode="H" horiz-adv-x="722" 
d="M175 0h-95v716h95v-294h372v294h95v-716h-95v338h-372v-338z" />
    <glyph glyph-name="I" unicode="I" horiz-adv-x="278" 
d="M187 0h-95v716h95v-716z" />
    <glyph glyph-name="J" unicode="J" horiz-adv-x="500" 
d="M27 191v12l85 12q3 -72 27 -107t83 -35q47 0 75 29q20 20 24.5 46t4.5 75v493h95v-488q0 -69 -12.5 -112.5t-45.5 -75.5q-55 -52 -144 -52q-94 0 -143 54.5t-49 148.5z" />
    <glyph glyph-name="K" unicode="K" horiz-adv-x="667" 
d="M168 0h-95v716h95v-355l355 355h129l-301 -290l314 -426h-125l-255 362l-117 -114v-248z" />
    <glyph glyph-name="L" unicode="L" 
d="M523 0h-448v716h95v-632h353v-84z" />
    <glyph glyph-name="M" unicode="M" horiz-adv-x="833" 
d="M166 0h-91v716h143l169 -507l34 -106q17 56 38 115l172 498h127v-716h-91v599l-208 -599h-86l-207 609v-609z" />
    <glyph glyph-name="N" unicode="N" horiz-adv-x="722" 
d="M170 0h-91v716h97l376 -562v562h91v-716h-97l-376 562v-562z" />
    <glyph glyph-name="O" unicode="O" horiz-adv-x="778" 
d="M47 349q0 173 94 276t236 103q163 0 259 -101.5t96 -269.5q0 -166 -96.5 -267.5t-241.5 -101.5q-156 0 -251.5 104t-95.5 257zM145 347q0 -125 68 -201.5t176 -76.5q111 0 178 77t67 211q0 135 -68 212.5t-172 77.5q-117 0 -183 -77.5t-66 -222.5z" />
    <glyph glyph-name="P" unicode="P" horiz-adv-x="667" 
d="M172 0h-95v716h270q77 0 122 -8.5t84 -40.5q70 -58 70 -152q0 -97 -56 -156q-37 -39 -86 -53t-126 -14h-183v-292zM172 632v-256h185q86 0 127 32t41 105q0 51 -38 87q-24 22 -51.5 27t-80.5 5h-183z" />
    <glyph glyph-name="Q" unicode="Q" horiz-adv-x="778" 
d="M740 10l-28 -66q-78 28 -153 88q-80 -44 -170 -44q-156 0 -251.5 103t-95.5 267t94 267t236 103q163 0 259 -101t96 -256q0 -189 -108 -294q67 -47 121 -67zM387 129l23 69q82 -23 135 -68q84 75 84 242q0 121 -68 198t-175 77q-112 0 -179 -77t-67 -212
q0 -136 67.5 -212.5t176.5 -76.5q50 0 97 19q-48 31 -94 41z" />
    <glyph glyph-name="R" unicode="R" horiz-adv-x="722" 
d="M175 0h-95v716h317q68 0 109.5 -8t76.5 -36q70 -56 70 -152q0 -80 -51.5 -130t-150.5 -64q73 -34 135 -131l125 -195h-119l-95 149q-69 108 -106.5 138t-106.5 30h-109v-317zM175 637v-236h204q79 0 114 18q62 32 62 101q0 54 -38.5 85.5t-115.5 31.5h-226z" />
    <glyph glyph-name="S" unicode="S" horiz-adv-x="667" 
d="M593 514l-91 -6q-8 69 -49.5 102t-124.5 33q-77 0 -120.5 -28.5t-43.5 -77.5q0 -66 69 -86q80 -24 202 -53q81 -18 130 -70t49 -126q0 -90 -71.5 -152t-193.5 -62q-144 0 -223 66t-81 176l90 8q5 -41 17.5 -68t40.5 -50q59 -47 153 -47q83 0 130.5 34t47.5 92
q0 80 -128 110q-111 27 -175 46q-67 19 -107 66t-40 110q0 87 67.5 142t182.5 55q123 0 193.5 -57t75.5 -157z" />
    <glyph glyph-name="T" unicode="T" horiz-adv-x="611" 
d="M352 0h-95v632h-236v84h568v-84h-237v-632z" />
    <glyph glyph-name="U" unicode="U" horiz-adv-x="722" 
d="M547 303v413h95v-413q0 -96 -17 -154t-69 -101q-71 -60 -195 -60q-125 0 -197 60q-52 43 -68.5 100.5t-16.5 154.5v413h95v-413q0 -72 9.5 -112.5t38.5 -69.5q48 -48 134 -48q96 0 144 48q30 30 38.5 69.5t8.5 112.5z" />
    <glyph glyph-name="V" unicode="V" horiz-adv-x="667" 
d="M379 0h-98l-277 716h103l186 -520q22 -59 37 -117q16 57 39 117l193 520h97z" />
    <glyph glyph-name="W" unicode="W" horiz-adv-x="944" 
d="M297 0h-97l-190 716h97l109 -470q21 -94 31 -146l13.5 58.5t18.5 74.5l136 483h114l103 -362q38 -134 56 -254q16 78 35 156l112 460h95l-196 -716h-91l-151 545q-16 53 -23 85q-13 -57 -21 -85z" />
    <glyph glyph-name="X" unicode="X" horiz-adv-x="667" 
d="M118 0h-114l277 373l-244 343h112l131 -184q38 -53 57 -88q21 35 57 82l144 190h103l-252 -337l271 -379h-117l-180 255q-12 17 -31 48q-12 -21 -35 -53z" />
    <glyph glyph-name="Y" unicode="Y" horiz-adv-x="667" 
d="M374 0h-95v303l-276 413h116l140 -216q41 -63 73 -121q28 49 79 127l138 210h110l-285 -413v-303z" />
    <glyph glyph-name="Z" unicode="Z" horiz-adv-x="611" 
d="M584 0h-566v88l367 458q45 55 74 86h-400v84h513v-84l-402 -497l-43 -51h457v-84z" />
    <glyph glyph-name="bracketleft" unicode="[" horiz-adv-x="278" 
d="M260 -199h-194v915h194v-73h-106v-769h106v-73z" />
    <glyph glyph-name="backslash" unicode="\" horiz-adv-x="278" 
d="M278 -12h-71l-207 740h71z" />
    <glyph glyph-name="bracketright" unicode="]" horiz-adv-x="278" 
d="M212 716v-915h-194v73h106v769h-106v73h194z" />
    <glyph glyph-name="asciicircum" unicode="^" horiz-adv-x="469" 
d="M233 629l-117 -292h-90l173 391h70l174 -391h-89z" />
    <glyph glyph-name="underscore" unicode="_" 
d="M562 -75v-50h-568v50h568z" />
    <glyph glyph-name="grave" unicode="`" horiz-adv-x="333" 
d="M161 720l66 -137h-71l-113 137h118z" />
    <glyph glyph-name="a" unicode="a" 
d="M203 294q13 2 51.5 7t56 7.5t44 8t45.5 12.5v16q0 55 -25.5 84t-100.5 29q-69 0 -95.5 -24.5t-39.5 -74.5l-86 11q17 81 73 120.5t158 39.5q127 0 174 -58q15 -18 21.5 -42t7.5 -40.5t1 -54.5v-117v-37.5v-37t0.5 -31t2.5 -32l5 -26.5t8 -29t12 -25h-92q-14 29 -18 64
q-89 -76 -188 -76q-84 0 -132 41t-48 108q0 62 43.5 104t121.5 53zM400 228v32q-42 -17 -117.5 -27.5t-113 -28.5t-37.5 -65q0 -38 28 -60t81 -22q73 0 120 49q39 41 39 122z" />
    <glyph glyph-name="b" unicode="b" 
d="M67 0v716h88v-256q55 70 142 70q98 0 159 -71.5t61 -187.5q0 -133 -64.5 -207.5t-160.5 -74.5q-91 0 -143 76v-65h-82zM148 263q0 -92 27 -137q39 -65 110 -65q65 0 103.5 53.5t38.5 155.5q0 84 -37.5 136t-100.5 52q-62 0 -101.5 -54t-39.5 -141z" />
    <glyph glyph-name="c" unicode="c" horiz-adv-x="500" 
d="M482 366l-85 -13q-24 105 -118 105q-71 0 -110.5 -50.5t-39.5 -145.5q0 -98 37.5 -149.5t107.5 -51.5q111 0 130 129l87 -11q-14 -91 -73 -140.5t-144 -49.5q-110 0 -172.5 72.5t-62.5 204.5q0 123 65 193.5t180 70.5q73 0 127.5 -41t70.5 -123z" />
    <glyph glyph-name="d" unicode="d" 
d="M404 0v66q-49 -77 -144 -77q-97 0 -160.5 75t-63.5 198t60.5 195.5t162.5 72.5q88 0 139 -71v257h88v-716h-82zM126 259q0 -95 40.5 -146.5t101.5 -51.5t99.5 49.5t38.5 140.5q0 97 -38 152t-103 55q-66 0 -102.5 -52t-36.5 -147z" />
    <glyph glyph-name="e" unicode="e" 
d="M516 237h-387q4 -83 47 -129.5t110 -46.5q99 0 136 106l91 -11q-21 -79 -79.5 -123t-143.5 -44q-120 0 -186 70.5t-66 195.5q0 126 65.5 200.5t176.5 74.5q106 0 171 -72t65 -198v-23zM134 310h289q-5 46 -13 65q-16 38 -51 60.5t-78 22.5q-62 0 -102 -41.5t-45 -106.5z
" />
    <glyph glyph-name="f" unicode="f" horiz-adv-x="278" 
d="M174 452v-452h-88v452h-78v66h78v56q0 78 32.5 116t112.5 38q35 0 80 -9l-13 -77q-26 5 -53 5q-43 0 -57 -19.5t-14 -60.5v-49h100v-66h-100z" />
    <glyph glyph-name="g" unicode="g" 
d="M410 456v62h81v-448q0 -99 -17 -150q-22 -62 -78 -96t-139 -34q-97 0 -151.5 44t-54.5 109q0 3 0.5 7t0.5 7l85 -13q12 -82 124 -82q83 0 119 55q22 35 22 125v26q-57 -68 -142 -68q-101 0 -163.5 73.5t-62.5 189.5q0 120 62 193.5t164 73.5q90 0 150 -74zM124 269
q0 -96 39 -146.5t106 -50.5q65 0 105 56q35 48 35 136q0 92 -40 143t-104 51q-62 0 -101.5 -51t-39.5 -138z" />
    <glyph glyph-name="h" unicode="h" 
d="M156 0h-88v716h88v-257q61 71 156 71q74 0 123 -39q32 -26 44 -63.5t12 -99.5v-328h-88v328q0 126 -111 126q-36 0 -67 -17t-48 -45q-21 -34 -21 -108v-284z" />
    <glyph glyph-name="i" unicode="i" horiz-adv-x="222" 
d="M156 0h-88v518h88v-518zM156 616h-88v100h88v-100z" />
    <glyph glyph-name="j" unicode="j" horiz-adv-x="222" 
d="M155 518v-546q0 -90 -27 -136t-100 -46q-40 0 -72 9l17 74q31 -7 42 -7q31 0 41.5 24t10.5 84v544h88zM155 716v-100h-88v100h88z" />
    <glyph glyph-name="k" unicode="k" horiz-adv-x="500" 
d="M154 0h-88v716h88v-408l208 210h114l-199 -192l219 -326h-109l-171 265l-62 -59v-206z" />
    <glyph glyph-name="l" unicode="l" horiz-adv-x="222" 
d="M154 716v-716h-88v716h88z" />
    <glyph glyph-name="m" unicode="m" horiz-adv-x="833" 
d="M462 301v-301h-88v337q0 58 -21.5 87.5t-70.5 29.5q-34 0 -62.5 -16t-44.5 -44q-21 -36 -21 -125v-269h-88v518h79v-72q54 84 158 84q113 0 145 -91q62 91 160 91q78 0 120 -44t42 -131v-355h-88v327q0 38 -5.5 63t-27 44.5t-61.5 19.5q-56 0 -91 -38t-35 -115z" />
    <glyph glyph-name="n" unicode="n" 
d="M147 518v-73q58 85 165 85q52 0 93 -20.5t62 -55.5q23 -40 23 -135v-319h-88v315q0 70 -20 98q-30 41 -89 41q-38 0 -70.5 -17.5t-48.5 -47.5q-18 -34 -18 -106v-283h-88v518h79z" />
    <glyph glyph-name="o" unicode="o" 
d="M35 259q0 129 67 200t176 71q120 0 189 -87q54 -69 54 -184q0 -130 -67 -200t-176 -70q-121 0 -189 86q-54 69 -54 184zM125 259q0 -94 41.5 -146t111.5 -52q69 0 111 52t42 146t-41.5 146.5t-111.5 52.5q-69 0 -111 -52t-42 -147z" />
    <glyph glyph-name="p" unicode="p" 
d="M148 518v-67q56 79 149 79q100 0 160.5 -72.5t60.5 -190.5q0 -128 -64.5 -203t-161.5 -75q-84 0 -136 65v-253h-88v717h80zM147 256q0 -94 38.5 -144.5t100.5 -50.5t102 52t40 150q0 93 -38 145.5t-100 52.5t-102.5 -56t-40.5 -149z" />
    <glyph glyph-name="q" unicode="q" 
d="M407 449v69h79v-717h-87v254q-22 -30 -58.5 -48t-77.5 -18q-96 0 -161 75.5t-65 199.5q0 121 60.5 193.5t159.5 72.5q95 0 150 -81zM127 261q0 -95 40 -147.5t103 -52.5q60 0 98.5 50t38.5 142q0 95 -39.5 151.5t-103.5 56.5q-62 0 -99.5 -52.5t-37.5 -147.5z" />
    <glyph glyph-name="r" unicode="r" horiz-adv-x="333" 
d="M143 518v-78q25 45 49.5 67.5t64.5 22.5q45 0 89 -28l-30 -81q-32 19 -67 19q-46 0 -71.5 -42.5t-25.5 -125.5v-272h-88v518h79z" />
    <glyph glyph-name="s" unicode="s" horiz-adv-x="500" 
d="M442 385l-86 -12q-12 85 -113 85q-53 0 -82.5 -18t-29.5 -50q0 -30 34 -47.5t82.5 -28t97.5 -24.5t83 -48.5t34 -88.5q0 -69 -56 -116.5t-146 -47.5q-103 0 -158.5 40t-70.5 126l87 13q15 -107 134 -107q57 0 88.5 23.5t31.5 58.5q0 27 -24 44t-60.5 25t-78.5 20
t-78.5 26t-60.5 45.5t-24 77.5q0 65 51.5 107t140.5 42q102 0 156 -48q38 -33 48 -97z" />
    <glyph glyph-name="t" unicode="t" horiz-adv-x="278" 
d="M168 452v-310q0 -22 1 -31.5t5 -21.5t14.5 -16t28.5 -4q1 0 39 5l13 -78q-36 -8 -65 -8q-36 0 -61 10t-37 22t-18.5 38t-7 41t-0.5 48v305h-64v66h64v129l88 53v-182h88v-66h-88z" />
    <glyph glyph-name="u" unicode="u" 
d="M399 241v277h88v-518h-79v76q-61 -88 -165 -88q-51 0 -91.5 20.5t-61.5 55.5q-24 39 -24 133v321h88v-328q0 -126 113 -126q53 0 93 40q24 24 31.5 55t7.5 82z" />
    <glyph glyph-name="v" unicode="v" horiz-adv-x="500" 
d="M293 0h-83l-197 518h93l111 -310q24 -70 34 -105q14 50 32 99l115 316h91z" />
    <glyph glyph-name="w" unicode="w" horiz-adv-x="722" 
d="M256 0h-92l-159 518h91l82 -299l31 -111q8 37 27 107l82 303h91l77 -300q1 -3 11 -39.5t15 -59.5q7 26 30 100l89 299h86l-163 -518h-91l-83 311q-6 21 -12.5 53.5t-7.5 34.5z" />
    <glyph glyph-name="x" unicode="x" horiz-adv-x="500" 
d="M113 0h-106l189 270l-175 248h110l80 -121l36 -58q15 24 39 57l88 122h105l-179 -243l193 -275h-108l-107 161q-3 4 -12.5 20t-15.5 24z" />
    <glyph glyph-name="y" unicode="y" horiz-adv-x="500" 
d="M491 518l-197 -527l-26 -67.5t-25.5 -53.5t-32 -45t-39 -24.5t-52.5 -10.5t-57 10l-10 83q35 -8 52 -8q18 0 32 5t22.5 9.5t17.5 20t12 22.5t12 32.5t13 34.5l-197 519h95l108 -300q19 -53 37 -120q17 64 37 119l110 301h88z" />
    <glyph glyph-name="z" unicode="z" horiz-adv-x="500" 
d="M479 0h-459v71l330 379q-77 -5 -99 -5h-211v73h424v-57l-281 -329l-31.5 -35.5t-23.5 -25.5q62 5 111 5h240v-76z" />
    <glyph glyph-name="braceleft" unicode="{" horiz-adv-x="334" 
d="M29 219v80q72 2 91 68q11 39 11 169v14q0 132 73 166q25 12 81 12h27v-76h-15q-51 0 -67.5 -18.5t-16.5 -82.5v-72q0 -100 -22 -146t-81 -74q60 -25 81.5 -76t21.5 -145v-71q0 -64 16.5 -82.5t67.5 -18.5h15v-76h-27q-56 0 -81 12q-73 34 -73 165q0 135 -8 173
q-16 68 -75 77q-9 2 -19 2z" />
    <glyph glyph-name="bar" unicode="|" horiz-adv-x="260" 
d="M169 -210h-77v938h77v-938z" />
    <glyph glyph-name="braceright" unicode="}" horiz-adv-x="334" 
d="M24 728h27q55 0 81 -12q73 -34 73 -166q0 -135 8 -173q16 -67 75 -76q9 -2 19 -2v-80q-71 -2 -91 -67q-11 -40 -11 -171v-14q0 -131 -73 -165q-26 -12 -81 -12h-27v76h15q51 0 67.5 19t16.5 82v71q0 95 21 145.5t81 75.5q-59 28 -80.5 74t-21.5 146v72q0 63 -16.5 82
t-67.5 19h-15v76z" />
    <glyph glyph-name="asciitilde" unicode="~" horiz-adv-x="584" 
d="M170 338q-37 0 -65 -16.5t-62 -49.5v100q53 59 136 59q52 0 130 -33t108 -33q64 0 126 67v-103q-59 -56 -133 -56q-54 0 -128 32.5t-112 32.5z" />
    <glyph glyph-name="uni00A0" unicode="&#xa0;" horiz-adv-x="278" 
 />
    <glyph glyph-name="exclamdown" unicode="&#xa1;" horiz-adv-x="333" 
d="M117 518h100v-100h-100v100zM137 341h57l27 -380v-158h-109v158z" />
    <glyph glyph-name="cent" unicode="&#xa2;" 
d="M497 366l-85 -13q-13 54 -47 83l-108 -374q13 -3 44 -3q36 0 72.5 34t45.5 97l88 -10q-16 -92 -76.5 -142.5t-131.5 -50.5q-35 0 -61 6l-58 -193l-55 16l57 194q-61 30 -94.5 94t-33.5 153q0 131 64.5 202t180.5 71q4 0 34 -3l55 189l54 -16l-55 -189q90 -39 110 -145z
M205 86l108 373q-4 1 -10 0t-9 -1q-72 0 -111 -51t-39 -148q0 -127 61 -173z" />
    <glyph glyph-name="sterling" unicode="&#xa3;" 
d="M119 323h-96v73h75q-24 81 -24 136q0 82 62 139t162 57q85 0 142.5 -48t71.5 -137l-88 -13q-7 58 -43.5 92t-87.5 34q-54 0 -89.5 -35t-35.5 -88t27 -137h154v-73h-139q8 -18 8 -57q0 -83 -85 -173q41 11 79 11q36 0 96 -16t94 -16q44 0 100 27l28 -81q-73 -30 -124 -30
q-28 0 -99 22t-125 22q-23 0 -61 -12t-72 -34l-34 85q51 28 82 77t31 114q0 29 -9 61z" />
    <glyph glyph-name="currency" unicode="&#xa4;" 
d="M106 469l-68 67l56 58l68 -68q52 35 116 35t116 -35l68 68l56 -58l-68 -67q35 -54 35 -115q0 -60 -35 -115l68 -66l-56 -58l-68 68q-52 -35 -116 -35t-116 35l-68 -68l-56 58l68 66q-35 55 -35 115q0 61 35 115zM278 481q-53 0 -90 -37t-37 -89q0 -53 37.5 -90t89.5 -37
t89.5 37t37.5 90t-38.5 89.5t-88.5 36.5z" />
    <glyph glyph-name="yen" unicode="&#xa5;" 
d="M323 0h-88v160h-202v66h202v70h-202v73h166l-198 347h98l141 -252q25 -45 37 -75l41 79l133 248h105l-198 -347h166v-73h-201v-70h201v-66h-201v-160z" />
    <glyph glyph-name="brokenbar" unicode="&#xa6;" horiz-adv-x="260" 
d="M92 728h77v-386h-77v386zM92 176h77v-386h-77v386z" />
    <glyph glyph-name="section" unicode="&#xa7;" 
d="M480 -50q0 -68 -54 -113.5t-140 -45.5q-91 0 -147 45.5t-67 129.5l89 12q13 -59 41.5 -87t84.5 -28q47 0 75 25.5t28 60.5q0 48 -90 106q-117 74 -182 120q-33 23 -54.5 62t-21.5 79q0 45 29 83.5t81 53.5q-63 60 -63 119q0 65 49 110.5t129 45.5q181 0 204 -169l-91 -10
q-9 53 -32.5 80t-72.5 27q-43 0 -71.5 -23.5t-28.5 -55.5q0 -48 89 -104l56.5 -35l51.5 -32.5l41.5 -27.5t36.5 -27.5t26 -26t21.5 -30t10.5 -31t5 -37.5q0 -56 -29.5 -86.5t-81.5 -52.5q78 -60 78 -137zM358 119q72 37 72 91q0 24 -17.5 49t-42.5 42q-171 114 -175 118
q-73 -41 -73 -93q0 -23 12 -45.5t30 -34.5l122.5 -81t71.5 -46z" />
    <glyph glyph-name="dieresis" unicode="&#xa8;" horiz-adv-x="333" 
d="M122 620h-91v100h91v-100zM304 620h-91v100h91v-100z" />
    <glyph glyph-name="copyright" unicode="&#xa9;" horiz-adv-x="737" 
d="M539 451l-58 -14q-30 75 -114 75q-55 0 -90 -42.5t-35 -113.5q0 -70 34 -110t93 -40q39 0 73 24t45 70l60 -18q-15 -63 -63 -98t-114 -35q-89 0 -141.5 56.5t-52.5 159.5q0 89 52.5 145t144.5 56q63 0 106 -30t60 -85zM369 728q153 0 260.5 -108t107.5 -260
q0 -153 -107.5 -261t-260.5 -108q-152 0 -260.5 108t-108.5 261t108 260.5t261 107.5zM369 667q-127 0 -217.5 -90t-90.5 -217t90.5 -217.5t217.5 -90.5t217 90.5t90 217.5t-90 217t-217 90z" />
    <glyph glyph-name="ordfeminine" unicode="&#xaa;" horiz-adv-x="370" 
d="M348 373h-72q-11 22 -11 43q-61 -53 -124 -53q-53 0 -86.5 29t-33.5 79q0 33 13 54.5t39.5 32t52 15t66 10.5t66.5 13q0 17 -1.5 27t-8.5 23t-24 19t-44 6q-71 0 -80 -61l-67 17q6 44 44.5 72.5t104.5 28.5q75 0 110.5 -28.5t35.5 -89.5v-146q0 -67 20 -91zM257 539
q-22 -6 -49.5 -10.5l-45.5 -7.5t-35.5 -8t-25.5 -15t-8 -27q0 -21 17.5 -34t46.5 -13q32 0 59 17t37 45q4 11 4 53z" />
    <glyph glyph-name="guillemotleft" unicode="&#xab;" 
d="M296 481l-128 -223l127 -223h-71l-156 223l156 223h72zM486 481l-129 -223l129 -223h-74l-153 223l153 223h74z" />
    <glyph glyph-name="logicalnot" unicode="&#xac;" horiz-adv-x="584" 
d="M529 504v-297h-83v213h-390v84h473z" />
    <glyph glyph-name="uni00AD" unicode="&#xad;" horiz-adv-x="333" 
d="M302 215h-270v88h270v-88z" />
    <glyph glyph-name="registered" unicode="&#xae;" horiz-adv-x="737" 
d="M271 156h-64v396h136q79 0 108 -13q28 -13 45 -38t17 -53q0 -47 -30.5 -79t-82.5 -36q25 -10 44 -32t48 -68l48 -77h-78l-35 62q-37 64 -58.5 85t-59.5 21h-38v-168zM271 498v-119h78q96 0 96 60q0 36 -27 47.5t-74 11.5h-73zM369 728q153 0 260.5 -108t107.5 -260
q0 -153 -107.5 -261t-260.5 -108q-152 0 -260.5 108t-108.5 261t108 260.5t261 107.5zM369 667q-127 0 -217.5 -90t-90.5 -217t90.5 -217.5t217.5 -90.5t217 90.5t90 217.5t-90 217t-217 90z" />
    <glyph glyph-name="macron" unicode="&#xaf;" horiz-adv-x="333" 
d="M319 599h-305v73h305v-73z" />
    <glyph glyph-name="degree" unicode="&#xb0;" horiz-adv-x="400" 
d="M65 593q0 56 39.5 95.5t96.5 39.5q56 0 95.5 -39.5t39.5 -95.5t-39.5 -96t-95.5 -40t-96 40t-40 96zM118 593q0 -34 24.5 -58.5t58.5 -24.5t58 24.5t24 58.5q0 35 -23.5 58.5t-58.5 23.5q-34 0 -58.5 -24t-24.5 -58z" />
    <glyph glyph-name="plusminus" unicode="&#xb1;" horiz-adv-x="584" 
d="M334 127h-83v197h-195v81h195v195h83v-195h195v-81h-195v-197zM529 84v-84h-473v84h473z" />
    <glyph glyph-name="twosuperior" unicode="&#xb2;" horiz-adv-x="333" 
d="M316 358h-304q5 42 46 82.5t143 114.5q37 26 37 58q0 25 -18.5 40t-51.5 15q-34 0 -48.5 -14t-23.5 -42l-74 7q14 54 49 80t103 26q66 0 103 -27.5t37 -74.5q0 -43 -30.5 -77.5t-83.5 -71.5t-72 -57h188v-59z" />
    <glyph glyph-name="threesuperior" unicode="&#xb3;" horiz-adv-x="333" 
d="M316 463q0 -49 -41 -81.5t-110 -32.5q-128 0 -149 105l72 7q18 -55 75 -55q33 0 55 18.5t22 46.5q0 54 -79 54q-4 0 -13.5 -0.5t-12.5 -0.5l11 53h5q31 0 51 13.5t20 39.5q0 17 -15.5 29t-44.5 12q-49 0 -68 -50l-70 11q20 50 50 71.5t89 21.5q66 0 100.5 -24.5
t34.5 -67.5q0 -27 -17.5 -48t-49.5 -30q85 -21 85 -92z" />
    <glyph glyph-name="acute" unicode="&#xb4;" horiz-adv-x="333" 
d="M182 583h-73l65 137h115z" />
    <glyph glyph-name="mu" unicode="&#xb5;" 
d="M409 0v61q-24 -36 -53 -55t-79 -19q-30 0 -54.5 10.5t-37.5 22.5t-29 32v-251h-88v717h88v-252q0 -102 16 -134q31 -64 101 -64q69 0 105 56q22 34 22 140v254h88v-518h-79z" />
    <glyph glyph-name="paragraph" unicode="&#xb6;" horiz-adv-x="537" 
d="M276 -199h-80v511q-92 4 -145 58.5t-53 142.5q0 91 59.5 147t171.5 56h309v-84h-70v-831h-83v831h-109v-831z" />
    <glyph glyph-name="periodcentered" unicode="&#xb7;" horiz-adv-x="278" 
d="M189 302h-100v100h100v-100z" />
    <glyph glyph-name="cedilla" unicode="&#xb8;" horiz-adv-x="333" 
d="M52 -200l5 57q13 -1 46 -1q79 0 79 36q0 33 -77 33l25 86h66l-16 -52q41 -5 62 -25t21 -48q0 -39 -38 -65t-98 -26q-51 0 -75 5z" />
    <glyph glyph-name="onesuperior" unicode="&#xb9;" horiz-adv-x="333" 
d="M232 358h-70v271q-50 -40 -110 -56v61q31 10 67.5 35.5t60.5 55.5h52v-367z" />
    <glyph glyph-name="ordmasculine" unicode="&#xba;" horiz-adv-x="365" 
d="M182 728q74 0 117.5 -51t43.5 -132t-43 -132.5t-117 -51.5q-73 0 -116.5 50t-43.5 133q0 82 42.5 133t116.5 51zM182 663q-87 0 -87 -119q0 -57 22.5 -87.5t64.5 -30.5t65.5 31t23.5 89q0 57 -24 87t-65 30z" />
    <glyph glyph-name="guillemotright" unicode="&#xbb;" 
d="M261 35l127 223l-128 223h73l155 -223l-155 -223h-72zM70 35l129 223l-129 223h74l153 -223l-153 -223h-74z" />
    <glyph glyph-name="onequarter" unicode="&#xbc;" horiz-adv-x="834" 
d="M232 358h-70v271q-50 -40 -110 -56v61q31 10 67.5 35.5t60.5 55.5h52v-367zM200 -28h-77l538 756h76zM769 -15h-70v75h-188v60l198 231h60v-238h50v-53h-50v-75zM586 113h113v128z" />
    <glyph glyph-name="onehalf" unicode="&#xbd;" horiz-adv-x="834" 
d="M232 358h-70v271q-50 -40 -110 -56v61q31 10 67.5 35.5t60.5 55.5h52v-367zM188 -28h-77l538 756h76zM816 -15h-304q5 42 46 82.5t143 114.5q37 26 37 58q0 25 -18.5 39.5t-51.5 14.5q-34 0 -48.5 -14t-23.5 -42l-74 8q14 54 49 79.5t103 25.5q67 0 103.5 -27.5
t36.5 -73.5q0 -43 -30.5 -77.5t-83.5 -71.5t-72 -57h188v-59z" />
    <glyph glyph-name="threequarters" unicode="&#xbe;" horiz-adv-x="834" 
d="M316 463q0 -49 -41 -81.5t-110 -32.5q-128 0 -149 105l72 7q18 -55 75 -55q33 0 55 18.5t22 46.5q0 54 -79 54q-1 0 -11 -0.5t-15 -0.5l11 53h5q31 0 51 13.5t20 39.5q0 17 -15.5 29t-44.5 12q-49 0 -68 -50l-70 11q20 50 50 71.5t89 21.5q66 0 100.5 -24.5t34.5 -67.5
q0 -27 -17.5 -48t-49.5 -30q85 -21 85 -92zM200 -28h-77l538 756h76zM768 -15h-70v75h-187v60l198 231h59v-238h51v-53h-51v-75zM586 113h112v128z" />
    <glyph glyph-name="questiondown" unicode="&#xbf;" horiz-adv-x="611" 
d="M257 518h100v-100h-100v100zM267 342h84v-18q0 -59 -16 -101.5t-58 -80.5q-73 -65 -89 -86q-22 -29 -22 -66q0 -50 40 -88.5t101 -38.5q56 0 92.5 36.5t47.5 107.5l91 -10q-12 -98 -72.5 -152t-159.5 -54q-101 0 -165.5 55.5t-64.5 139.5q0 18 3.5 34t6.5 28t14 28
t15.5 23.5t22 25.5t23 23l28.5 26t29 26q31 28 39.5 59.5t9.5 82.5z" />
    <glyph glyph-name="Agrave" unicode="&#xc0;" horiz-adv-x="667" 
d="M99 0h-101l275 716h102l293 -716h-108l-84 218h-299zM283 504l-78 -210h242l-74 198q-33 89 -51 149q-13 -67 -39 -137zM328 901l66 -137h-71l-113 137h118z" />
    <glyph glyph-name="Aacute" unicode="&#xc1;" horiz-adv-x="667" 
d="M99 0h-101l275 716h102l293 -716h-108l-84 218h-299zM283 504l-78 -210h242l-74 198q-33 89 -51 149q-13 -67 -39 -137zM349 764h-73l65 137h115z" />
    <glyph glyph-name="Acircumflex" unicode="&#xc2;" horiz-adv-x="667" 
d="M99 0h-101l275 716h102l293 -716h-108l-84 218h-299zM283 504l-78 -210h242l-74 198q-33 89 -51 149q-13 -67 -39 -137zM388 764l-53 83l-56 -83h-100l106 137h93l110 -137h-100z" />
    <glyph glyph-name="Atilde" unicode="&#xc3;" horiz-adv-x="667" 
d="M99 0h-101l275 716h102l293 -716h-108l-84 218h-299zM283 504l-78 -210h242l-74 198q-33 89 -51 149q-13 -67 -39 -137zM271 823q-15 0 -25.5 -11.5t-10.5 -29.5v-6h-65v10q0 41 27.5 71.5t72.5 30.5q27 0 69.5 -20.5t58.5 -20.5q17 0 24.5 9.5t10.5 32.5h64
q-2 -55 -28 -83t-66 -28q-32 0 -74 22.5t-58 22.5z" />
    <glyph glyph-name="Adieresis" unicode="&#xc4;" horiz-adv-x="667" 
d="M99 0h-101l275 716h102l293 -716h-108l-84 218h-299zM283 504l-78 -210h242l-74 198q-33 89 -51 149q-13 -67 -39 -137zM289 801h-91v100h91v-100zM471 801h-91v100h91v-100z" />
    <glyph glyph-name="Aring" unicode="&#xc5;" horiz-adv-x="667" 
d="M99 0h-101l275 716h102l293 -716h-108l-84 218h-299zM283 504l-78 -210h242l-74 198q-33 89 -51 149q-13 -67 -39 -137zM246 834q0 35 25.5 61.5t63.5 26.5q35 0 61 -26.5t26 -63.5t-25.5 -63t-62.5 -26t-62.5 26t-25.5 65zM283 834q0 -23 15.5 -38.5t36.5 -15.5
q22 0 36.5 15.5t14.5 37.5t-14.5 37.5t-36.5 15.5t-37 -15.5t-15 -36.5z" />
    <glyph glyph-name="AE" unicode="&#xc6;" horiz-adv-x="1000" 
d="M102 0h-102l344 716h588v-84h-360v-221h334v-84h-334v-243h373v-84h-468v207h-277zM406 632l-166 -341h237v341h-71z" />
    <glyph glyph-name="Ccedilla" unicode="&#xc7;" horiz-adv-x="722" 
d="M590 251l95 -24q-29 -112 -103 -173t-183 -66l-6 -25q39 -5 60.5 -26t21.5 -51q0 -46 -42.5 -71t-124.5 -25q-37 0 -55 1l4 62q19 -2 67 -2q66 0 66 35t-82 37l25 68q-133 16 -207 115t-74 254q0 170 93 269t245 99q107 0 181 -54.5t102 -154.5l-94 -22q-48 150 -191 150
q-113 0 -175.5 -75t-62.5 -211q0 -145 62 -217q64 -75 170 -75q79 0 134 46.5t74 135.5z" />
    <glyph glyph-name="Egrave" unicode="&#xc8;" horiz-adv-x="667" 
d="M613 0h-534v716h518v-84h-423v-220h396v-84h-396v-244h439v-84zM328 901l66 -137h-71l-113 137h118z" />
    <glyph glyph-name="Eacute" unicode="&#xc9;" horiz-adv-x="667" 
d="M613 0h-534v716h518v-84h-423v-220h396v-84h-396v-244h439v-84zM349 764h-73l65 137h115z" />
    <glyph glyph-name="Ecircumflex" unicode="&#xca;" horiz-adv-x="667" 
d="M613 0h-534v716h518v-84h-423v-220h396v-84h-396v-244h439v-84zM388 764l-53 83l-56 -83h-100l106 137h93l110 -137h-100z" />
    <glyph glyph-name="Edieresis" unicode="&#xcb;" horiz-adv-x="667" 
d="M613 0h-534v716h518v-84h-423v-220h396v-84h-396v-244h439v-84zM289 801h-91v100h91v-100zM471 801h-91v100h91v-100z" />
    <glyph glyph-name="Igrave" unicode="&#xcc;" horiz-adv-x="278" 
d="M187 0h-95v716h95v-716zM134 901l66 -137h-71l-113 137h118z" />
    <glyph glyph-name="Iacute" unicode="&#xcd;" horiz-adv-x="278" 
d="M187 0h-95v716h95v-716zM155 764h-73l65 137h115z" />
    <glyph glyph-name="Icircumflex" unicode="&#xce;" horiz-adv-x="278" 
d="M187 0h-95v716h95v-716zM194 764l-53 83l-56 -83h-100l106 137h93l110 -137h-100z" />
    <glyph glyph-name="Idieresis" unicode="&#xcf;" horiz-adv-x="278" 
d="M187 0h-95v716h95v-716zM95 801h-91v100h91v-100zM277 801h-91v100h91v-100z" />
    <glyph glyph-name="Eth" unicode="&#xd0;" horiz-adv-x="722" 
d="M337 0h-258v325h-79v66h79v325h247q77 0 127 -9.5t95 -44.5q123 -93 123 -298q0 -118 -40 -201.5t-114 -125.5q-31 -18 -66 -26.5t-54.5 -9.5t-59.5 -1zM174 325v-241h152q68 0 110 12.5t73 48.5q64 74 64 225q0 147 -77 216q-33 30 -71 38t-101 8h-150v-241h197v-66
h-197z" />
    <glyph glyph-name="Ntilde" unicode="&#xd1;" horiz-adv-x="722" 
d="M170 0h-91v716h97l376 -562v562h91v-716h-97l-376 562v-562zM298 823q-15 0 -25.5 -11.5t-10.5 -29.5v-6h-65v10q0 41 27.5 71.5t72.5 30.5q27 0 69.5 -20.5t58.5 -20.5q17 0 24.5 9.5t10.5 32.5h64q-2 -55 -28 -83t-66 -28q-32 0 -74 22.5t-58 22.5z" />
    <glyph glyph-name="Ograve" unicode="&#xd2;" horiz-adv-x="778" 
d="M47 349q0 173 94 276t236 103q163 0 259 -101.5t96 -269.5q0 -166 -96.5 -267.5t-241.5 -101.5q-156 0 -251.5 104t-95.5 257zM145 347q0 -125 68 -201.5t176 -76.5q111 0 178 77t67 211q0 135 -68 212.5t-172 77.5q-117 0 -183 -77.5t-66 -222.5zM383 901l66 -137h-71
l-113 137h118z" />
    <glyph glyph-name="Oacute" unicode="&#xd3;" horiz-adv-x="778" 
d="M47 349q0 173 94 276t236 103q163 0 259 -101.5t96 -269.5q0 -166 -96.5 -267.5t-241.5 -101.5q-156 0 -251.5 104t-95.5 257zM145 347q0 -125 68 -201.5t176 -76.5q111 0 178 77t67 211q0 135 -68 212.5t-172 77.5q-117 0 -183 -77.5t-66 -222.5zM404 764h-73l65 137
h115z" />
    <glyph glyph-name="Ocircumflex" unicode="&#xd4;" horiz-adv-x="778" 
d="M47 349q0 173 94 276t236 103q163 0 259 -101.5t96 -269.5q0 -166 -96.5 -267.5t-241.5 -101.5q-156 0 -251.5 104t-95.5 257zM145 347q0 -125 68 -201.5t176 -76.5q111 0 178 77t67 211q0 135 -68 212.5t-172 77.5q-117 0 -183 -77.5t-66 -222.5zM443 764l-53 83
l-56 -83h-100l106 137h93l110 -137h-100z" />
    <glyph glyph-name="Otilde" unicode="&#xd5;" horiz-adv-x="778" 
d="M47 349q0 173 94 276t236 103q163 0 259 -101.5t96 -269.5q0 -166 -96.5 -267.5t-241.5 -101.5q-156 0 -251.5 104t-95.5 257zM145 347q0 -125 68 -201.5t176 -76.5q111 0 178 77t67 211q0 135 -68 212.5t-172 77.5q-117 0 -183 -77.5t-66 -222.5zM326 823
q-15 0 -25.5 -11.5t-10.5 -29.5v-6h-65v10q0 41 27.5 71.5t72.5 30.5q27 0 69.5 -20.5t58.5 -20.5q17 0 24.5 9.5t10.5 32.5h64q-2 -55 -28 -83t-66 -28q-32 0 -74 22.5t-58 22.5z" />
    <glyph glyph-name="Odieresis" unicode="&#xd6;" horiz-adv-x="778" 
d="M47 349q0 173 94 276t236 103q163 0 259 -101.5t96 -269.5q0 -166 -96.5 -267.5t-241.5 -101.5q-156 0 -251.5 104t-95.5 257zM145 347q0 -125 68 -201.5t176 -76.5q111 0 178 77t67 211q0 135 -68 212.5t-172 77.5q-117 0 -183 -77.5t-66 -222.5zM344 801h-91v100h91
v-100zM526 801h-91v100h91v-100z" />
    <glyph glyph-name="multiply" unicode="&#xd7;" horiz-adv-x="584" 
d="M138 141l-59 59l154 154l-153 153l59 60l154 -154l152 153l59 -59l-153 -153l154 -153l-60 -60l-153 154z" />
    <glyph glyph-name="Oslash" unicode="&#xd8;" horiz-adv-x="778" 
d="M39 12l86 96q-27 41 -40 65t-26.5 75t-13.5 112q0 162 94.5 265t247.5 103q53 0 96.5 -12.5t67 -26t58.5 -39.5l82 92l48 -41l-86 -96q25 -38 38 -62t26 -75t13 -113q0 -162 -96.5 -264.5t-242.5 -102.5q-77 0 -124.5 19t-97.5 56l-82 -92zM186 177l364 408
q-27 21 -43.5 31.5t-47.5 20.5t-69 10q-113 0 -180 -77t-67 -210q0 -102 43 -183zM590 534l-363 -406q35 -30 71 -44.5t89 -14.5q109 0 177 77.5t68 208.5q0 100 -42 179z" />
    <glyph glyph-name="Ugrave" unicode="&#xd9;" horiz-adv-x="722" 
d="M547 303v413h95v-413q0 -96 -17 -154t-69 -101q-71 -60 -195 -60q-125 0 -197 60q-52 43 -68.5 100.5t-16.5 154.5v413h95v-413q0 -72 9.5 -112.5t38.5 -69.5q48 -48 134 -48q96 0 144 48q30 30 38.5 69.5t8.5 112.5zM355 901l66 -137h-71l-113 137h118z" />
    <glyph glyph-name="Uacute" unicode="&#xda;" horiz-adv-x="722" 
d="M547 303v413h95v-413q0 -96 -17 -154t-69 -101q-71 -60 -195 -60q-125 0 -197 60q-52 43 -68.5 100.5t-16.5 154.5v413h95v-413q0 -72 9.5 -112.5t38.5 -69.5q48 -48 134 -48q96 0 144 48q30 30 38.5 69.5t8.5 112.5zM376 764h-73l65 137h115z" />
    <glyph glyph-name="Ucircumflex" unicode="&#xdb;" horiz-adv-x="722" 
d="M547 303v413h95v-413q0 -96 -17 -154t-69 -101q-71 -60 -195 -60q-125 0 -197 60q-52 43 -68.5 100.5t-16.5 154.5v413h95v-413q0 -72 9.5 -112.5t38.5 -69.5q48 -48 134 -48q96 0 144 48q30 30 38.5 69.5t8.5 112.5zM415 764l-53 83l-56 -83h-100l106 137h93l110 -137
h-100z" />
    <glyph glyph-name="Udieresis" unicode="&#xdc;" horiz-adv-x="722" 
d="M547 303v413h95v-413q0 -96 -17 -154t-69 -101q-71 -60 -195 -60q-125 0 -197 60q-52 43 -68.5 100.5t-16.5 154.5v413h95v-413q0 -72 9.5 -112.5t38.5 -69.5q48 -48 134 -48q96 0 144 48q30 30 38.5 69.5t8.5 112.5zM316 801h-91v100h91v-100zM498 801h-91v100h91v-100z
" />
    <glyph glyph-name="Yacute" unicode="&#xdd;" horiz-adv-x="667" 
d="M374 0h-95v303l-276 413h116l140 -216q41 -63 73 -121q28 49 79 127l138 210h110l-285 -413v-303zM349 764h-73l65 137h115z" />
    <glyph glyph-name="Thorn" unicode="&#xde;" horiz-adv-x="667" 
d="M172 0h-95v716h95v-146h175q77 0 122 -8.5t84 -39.5q71 -57 71 -160q0 -89 -57 -149q-37 -39 -86 -53t-126 -14h-183v-146zM172 486v-256h185q169 0 169 129q0 60 -39 96q-17 15 -39.5 22t-38.5 8t-54 1h-183z" />
    <glyph glyph-name="germandbls" unicode="&#xdf;" horiz-adv-x="611" 
d="M377 579q0 32 -27 54.5t-72 22.5q-67 0 -92 -43.5t-25 -128.5v-484h-88v488q0 93 22 137q23 47 71 75t110 28q86 0 136.5 -40.5t50.5 -99.5q0 -29 -11.5 -60t-26 -52.5t-26 -45.5t-11.5 -41q0 -18 14 -35t35 -30t46 -30t46 -34.5t35 -44.5t14 -60q0 -72 -50.5 -119.5
t-127.5 -47.5q-60 0 -107 32t-71 85l76 36q44 -81 100 -81q37 0 63.5 25t26.5 64q0 24 -19.5 45.5t-47.5 40l-56 37.5t-47.5 46t-19.5 58q0 36 39.5 103.5t39.5 99.5z" />
    <glyph glyph-name="agrave" unicode="&#xe0;" 
d="M203 294q13 2 51.5 7t56 7.5t44 8t45.5 12.5v16q0 55 -25.5 84t-100.5 29q-69 0 -95.5 -24.5t-39.5 -74.5l-86 11q17 81 73 120.5t158 39.5q127 0 174 -58q15 -18 21.5 -42t7.5 -40.5t1 -54.5v-117v-37.5v-37t0.5 -31t2.5 -32l5 -26.5t8 -29t12 -25h-92q-14 29 -18 64
q-89 -76 -188 -76q-84 0 -132 41t-48 108q0 62 43.5 104t121.5 53zM400 228v32q-42 -17 -117.5 -27.5t-113 -28.5t-37.5 -65q0 -38 28 -60t81 -22q73 0 120 49q39 41 39 122zM272 720l66 -137h-71l-113 137h118z" />
    <glyph glyph-name="aacute" unicode="&#xe1;" 
d="M203 294q13 2 51.5 7t56 7.5t44 8t45.5 12.5v16q0 55 -25.5 84t-100.5 29q-69 0 -95.5 -24.5t-39.5 -74.5l-86 11q17 81 73 120.5t158 39.5q127 0 174 -58q15 -18 21.5 -42t7.5 -40.5t1 -54.5v-117v-37.5v-37t0.5 -31t2.5 -32l5 -26.5t8 -29t12 -25h-92q-14 29 -18 64
q-89 -76 -188 -76q-84 0 -132 41t-48 108q0 62 43.5 104t121.5 53zM400 228v32q-42 -17 -117.5 -27.5t-113 -28.5t-37.5 -65q0 -38 28 -60t81 -22q73 0 120 49q39 41 39 122zM293 583h-73l65 137h115z" />
    <glyph glyph-name="acircumflex" unicode="&#xe2;" 
d="M203 294q13 2 51.5 7t56 7.5t44 8t45.5 12.5v16q0 55 -25.5 84t-100.5 29q-69 0 -95.5 -24.5t-39.5 -74.5l-86 11q17 81 73 120.5t158 39.5q127 0 174 -58q15 -18 21.5 -42t7.5 -40.5t1 -54.5v-117v-37.5v-37t0.5 -31t2.5 -32l5 -26.5t8 -29t12 -25h-92q-14 29 -18 64
q-89 -76 -188 -76q-84 0 -132 41t-48 108q0 62 43.5 104t121.5 53zM400 228v32q-42 -17 -117.5 -27.5t-113 -28.5t-37.5 -65q0 -38 28 -60t81 -22q73 0 120 49q39 41 39 122zM332 583l-53 83l-56 -83h-100l106 137h93l110 -137h-100z" />
    <glyph glyph-name="atilde" unicode="&#xe3;" 
d="M203 294q13 2 51.5 7t56 7.5t44 8t45.5 12.5v16q0 55 -25.5 84t-100.5 29q-69 0 -95.5 -24.5t-39.5 -74.5l-86 11q17 81 73 120.5t158 39.5q127 0 174 -58q15 -18 21.5 -42t7.5 -40.5t1 -54.5v-117v-37.5v-37t0.5 -31t2.5 -32l5 -26.5t8 -29t12 -25h-92q-14 29 -18 64
q-89 -76 -188 -76q-84 0 -132 41t-48 108q0 62 43.5 104t121.5 53zM400 228v32q-42 -17 -117.5 -27.5t-113 -28.5t-37.5 -65q0 -38 28 -60t81 -22q73 0 120 49q39 41 39 122zM215 642q-15 0 -25.5 -11.5t-10.5 -29.5v-6h-65v10q0 41 27.5 71.5t72.5 30.5q27 0 69.5 -20.5
t58.5 -20.5q17 0 24.5 9.5t10.5 32.5h64q-2 -55 -28 -83t-66 -28q-32 0 -74 22.5t-58 22.5z" />
    <glyph glyph-name="adieresis" unicode="&#xe4;" 
d="M203 294q13 2 51.5 7t56 7.5t44 8t45.5 12.5v16q0 55 -25.5 84t-100.5 29q-69 0 -95.5 -24.5t-39.5 -74.5l-86 11q17 81 73 120.5t158 39.5q127 0 174 -58q15 -18 21.5 -42t7.5 -40.5t1 -54.5v-117v-37.5v-37t0.5 -31t2.5 -32l5 -26.5t8 -29t12 -25h-92q-14 29 -18 64
q-89 -76 -188 -76q-84 0 -132 41t-48 108q0 62 43.5 104t121.5 53zM400 228v32q-42 -17 -117.5 -27.5t-113 -28.5t-37.5 -65q0 -38 28 -60t81 -22q73 0 120 49q39 41 39 122zM233 620h-91v100h91v-100zM415 620h-91v100h91v-100z" />
    <glyph glyph-name="aring" unicode="&#xe5;" 
d="M203 294q13 2 51.5 7t56 7.5t44 8t45.5 12.5v16q0 55 -25.5 84t-100.5 29q-69 0 -95.5 -24.5t-39.5 -74.5l-86 11q17 81 73 120.5t158 39.5q127 0 174 -58q15 -18 21.5 -42t7.5 -40.5t1 -54.5v-117v-37.5v-37t0.5 -31t2.5 -32l5 -26.5t8 -29t12 -25h-92q-14 29 -18 64
q-89 -76 -188 -76q-84 0 -132 41t-48 108q0 62 43.5 104t121.5 53zM400 228v32q-42 -17 -117.5 -27.5t-113 -28.5t-37.5 -65q0 -38 28 -60t81 -22q73 0 120 49q39 41 39 122zM190 653q0 35 25.5 61.5t63.5 26.5q35 0 61 -26.5t26 -63.5t-25.5 -63t-62.5 -26t-62.5 26
t-25.5 65zM227 653q0 -23 15.5 -38.5t36.5 -15.5q22 0 36.5 15.5t14.5 37.5t-14.5 37.5t-36.5 15.5t-37 -15.5t-15 -36.5z" />
    <glyph glyph-name="ae" unicode="&#xe6;" horiz-adv-x="889" 
d="M617 530q111 0 172 -75t61 -190q0 -3 -0.5 -14t-0.5 -14h-374q1 -85 43 -130.5t105 -45.5q52 0 87 29.5t47 80.5l91 -12q-24 -81 -82.5 -125.5t-141.5 -44.5q-125 0 -197 96q-98 -98 -210 -98q-79 0 -124 35q-58 44 -58 115q0 42 24 78t67 56q39 18 127 30.5t134 25.5
q0 2 0.5 5.5t0.5 5.5q0 65 -22.5 92.5t-96.5 27.5q-71 0 -97 -25t-37 -75l-86 10q19 82 72 122t147 40q76 0 119 -16t66 -54q65 70 164 70zM389 231v29q-33 -14 -85 -23.5t-87 -14t-61.5 -25t-26.5 -57.5q0 -36 26 -58.5t74 -22.5t88 21t59 59q13 25 13 92zM475 310h285
q-13 148 -141 148q-63 0 -101 -39.5t-43 -108.5z" />
    <glyph glyph-name="ccedilla" unicode="&#xe7;" horiz-adv-x="500" 
d="M405 189l86 -10q-13 -87 -67.5 -136.5t-137.5 -54.5l-6 -24q39 -4 59.5 -23.5t20.5 -49.5q0 -47 -50.5 -71t-142.5 -12l2 58q36 -4 46 -4q64 0 64 34t-72 32l16 64q-85 16 -134.5 85.5t-49.5 176.5q0 133 64 204.5t181 71.5q73 0 128 -41t71 -123l-86 -14
q-25 106 -118 106q-72 0 -111 -51t-39 -147q0 -97 38 -148.5t105 -51.5q115 0 133 129z" />
    <glyph glyph-name="egrave" unicode="&#xe8;" 
d="M516 237h-387q4 -83 47 -129.5t110 -46.5q99 0 136 106l91 -11q-21 -79 -79.5 -123t-143.5 -44q-120 0 -186 70.5t-66 195.5q0 126 65.5 200.5t176.5 74.5q106 0 171 -72t65 -198v-23zM134 310h289q-5 46 -13 65q-16 38 -51 60.5t-78 22.5q-62 0 -102 -41.5t-45 -106.5z
M272 720l66 -137h-71l-113 137h118z" />
    <glyph glyph-name="eacute" unicode="&#xe9;" 
d="M516 237h-387q4 -83 47 -129.5t110 -46.5q99 0 136 106l91 -11q-21 -79 -79.5 -123t-143.5 -44q-120 0 -186 70.5t-66 195.5q0 126 65.5 200.5t176.5 74.5q106 0 171 -72t65 -198v-23zM134 310h289q-5 46 -13 65q-16 38 -51 60.5t-78 22.5q-62 0 -102 -41.5t-45 -106.5z
M293 583h-73l65 137h115z" />
    <glyph glyph-name="ecircumflex" unicode="&#xea;" 
d="M516 237h-387q4 -83 47 -129.5t110 -46.5q99 0 136 106l91 -11q-21 -79 -79.5 -123t-143.5 -44q-120 0 -186 70.5t-66 195.5q0 126 65.5 200.5t176.5 74.5q106 0 171 -72t65 -198v-23zM134 310h289q-5 46 -13 65q-16 38 -51 60.5t-78 22.5q-62 0 -102 -41.5t-45 -106.5z
M332 583l-53 83l-56 -83h-100l106 137h93l110 -137h-100z" />
    <glyph glyph-name="edieresis" unicode="&#xeb;" 
d="M516 237h-387q4 -83 47 -129.5t110 -46.5q99 0 136 106l91 -11q-21 -79 -79.5 -123t-143.5 -44q-120 0 -186 70.5t-66 195.5q0 126 65.5 200.5t176.5 74.5q106 0 171 -72t65 -198v-23zM134 310h289q-5 46 -13 65q-16 38 -51 60.5t-78 22.5q-62 0 -102 -41.5t-45 -106.5z
M233 620h-91v100h91v-100zM415 620h-91v100h91v-100z" />
    <glyph glyph-name="igrave" unicode="&#xec;" horiz-adv-x="278" 
d="M183 0h-88v518h88v-518zM134 720l66 -137h-71l-113 137h118z" />
    <glyph glyph-name="iacute" unicode="&#xed;" horiz-adv-x="278" 
d="M183 0h-88v518h88v-518zM155 583h-73l65 137h115z" />
    <glyph glyph-name="icircumflex" unicode="&#xee;" horiz-adv-x="278" 
d="M183 0h-88v518h88v-518zM194 583l-53 83l-56 -83h-100l106 137h93l110 -137h-100z" />
    <glyph glyph-name="idieresis" unicode="&#xef;" horiz-adv-x="278" 
d="M183 0h-88v518h88v-518zM95 620h-91v100h91v-100zM277 620h-91v100h91v-100z" />
    <glyph glyph-name="eth" unicode="&#xf0;" 
d="M137 582l117 53q-49 45 -101 81h106q32 -24 61 -50l104 50l22 -50l-84 -40q156 -179 156 -370q0 -122 -66 -195t-174 -73q-106 0 -173 68.5t-67 187.5q0 103 34 164q29 53 78 81.5t110 28.5q50 0 102 -28q-30 60 -69 104l-135 -62zM428 258q0 91 -43.5 142t-110.5 51
t-106.5 -52.5t-39.5 -148.5q0 -93 42.5 -141.5t105.5 -48.5q68 0 110 52.5t42 145.5z" />
    <glyph glyph-name="ntilde" unicode="&#xf1;" 
d="M147 518v-73q58 85 165 85q52 0 93 -20.5t62 -55.5q23 -40 23 -135v-319h-88v315q0 70 -20 98q-30 41 -89 41q-38 0 -70.5 -17.5t-48.5 -47.5q-18 -34 -18 -106v-283h-88v518h79zM215 642q-15 0 -25.5 -11.5t-10.5 -29.5v-6h-65v10q0 41 27.5 71.5t72.5 30.5
q27 0 69.5 -20.5t58.5 -20.5q17 0 24.5 9.5t10.5 32.5h64q-2 -55 -28 -83t-66 -28q-32 0 -74 22.5t-58 22.5z" />
    <glyph glyph-name="ograve" unicode="&#xf2;" 
d="M35 259q0 129 67 200t176 71q120 0 189 -87q54 -69 54 -184q0 -130 -67 -200t-176 -70q-121 0 -189 86q-54 69 -54 184zM125 259q0 -94 41.5 -146t111.5 -52q69 0 111 52t42 146t-41.5 146.5t-111.5 52.5q-69 0 -111 -52t-42 -147zM272 720l66 -137h-71l-113 137h118z
" />
    <glyph glyph-name="oacute" unicode="&#xf3;" 
d="M35 259q0 129 67 200t176 71q120 0 189 -87q54 -69 54 -184q0 -130 -67 -200t-176 -70q-121 0 -189 86q-54 69 -54 184zM125 259q0 -94 41.5 -146t111.5 -52q69 0 111 52t42 146t-41.5 146.5t-111.5 52.5q-69 0 -111 -52t-42 -147zM293 583h-73l65 137h115z" />
    <glyph glyph-name="ocircumflex" unicode="&#xf4;" 
d="M35 259q0 129 67 200t176 71q120 0 189 -87q54 -69 54 -184q0 -130 -67 -200t-176 -70q-121 0 -189 86q-54 69 -54 184zM125 259q0 -94 41.5 -146t111.5 -52q69 0 111 52t42 146t-41.5 146.5t-111.5 52.5q-69 0 -111 -52t-42 -147zM332 583l-53 83l-56 -83h-100l106 137
h93l110 -137h-100z" />
    <glyph glyph-name="otilde" unicode="&#xf5;" 
d="M35 259q0 129 67 200t176 71q120 0 189 -87q54 -69 54 -184q0 -130 -67 -200t-176 -70q-121 0 -189 86q-54 69 -54 184zM125 259q0 -94 41.5 -146t111.5 -52q69 0 111 52t42 146t-41.5 146.5t-111.5 52.5q-69 0 -111 -52t-42 -147zM215 642q-15 0 -25.5 -11.5
t-10.5 -29.5v-6h-65v10q0 41 27.5 71.5t72.5 30.5q27 0 69.5 -20.5t58.5 -20.5q17 0 24.5 9.5t10.5 32.5h64q-2 -55 -28 -83t-66 -28q-32 0 -74 22.5t-58 22.5z" />
    <glyph glyph-name="odieresis" unicode="&#xf6;" 
d="M35 259q0 129 67 200t176 71q120 0 189 -87q54 -69 54 -184q0 -130 -67 -200t-176 -70q-121 0 -189 86q-54 69 -54 184zM125 259q0 -94 41.5 -146t111.5 -52q69 0 111 52t42 146t-41.5 146.5t-111.5 52.5q-69 0 -111 -52t-42 -147zM233 620h-91v100h91v-100zM415 620h-91
v100h91v-100z" />
    <glyph glyph-name="divide" unicode="&#xf7;" horiz-adv-x="584" 
d="M529 395v-84h-473v84h473zM342 451h-100v100h100v-100zM342 156h-100v100h100v-100z" />
    <glyph glyph-name="oslash" unicode="&#xf8;" horiz-adv-x="611" 
d="M71 -4l53 69q-61 70 -61 187q0 123 54 191q69 87 188 87q75 0 144 -42l48 63l47 -35l-52 -67q32 -43 44.5 -85t12.5 -103q0 -118 -54 -186q-68 -86 -190 -86q-79 0 -137 39l-51 -67zM179 137l220 286q-45 35 -93 35q-69 0 -111 -52t-42 -146q0 -71 26 -123zM436 376
l-219 -285q37 -30 89 -30q68 0 110.5 51.5t42.5 146.5q0 65 -23 117z" />
    <glyph glyph-name="ugrave" unicode="&#xf9;" 
d="M399 241v277h88v-518h-79v76q-61 -88 -165 -88q-51 0 -91.5 20.5t-61.5 55.5q-24 39 -24 133v321h88v-328q0 -126 113 -126q53 0 93 40q24 24 31.5 55t7.5 82zM272 720l66 -137h-71l-113 137h118z" />
    <glyph glyph-name="uacute" unicode="&#xfa;" 
d="M399 241v277h88v-518h-79v76q-61 -88 -165 -88q-51 0 -91.5 20.5t-61.5 55.5q-24 39 -24 133v321h88v-328q0 -126 113 -126q53 0 93 40q24 24 31.5 55t7.5 82zM293 583h-73l65 137h115z" />
    <glyph glyph-name="ucircumflex" unicode="&#xfb;" 
d="M399 241v277h88v-518h-79v76q-61 -88 -165 -88q-51 0 -91.5 20.5t-61.5 55.5q-24 39 -24 133v321h88v-328q0 -126 113 -126q53 0 93 40q24 24 31.5 55t7.5 82zM332 583l-53 83l-56 -83h-100l106 137h93l110 -137h-100z" />
    <glyph glyph-name="udieresis" unicode="&#xfc;" 
d="M399 241v277h88v-518h-79v76q-61 -88 -165 -88q-51 0 -91.5 20.5t-61.5 55.5q-24 39 -24 133v321h88v-328q0 -126 113 -126q53 0 93 40q24 24 31.5 55t7.5 82zM233 620h-91v100h91v-100zM415 620h-91v100h91v-100z" />
    <glyph glyph-name="yacute" unicode="&#xfd;" horiz-adv-x="500" 
d="M491 518l-197 -527l-26 -67.5t-25.5 -53.5t-32 -45t-39 -24.5t-52.5 -10.5t-57 10l-10 83q35 -8 52 -8q18 0 32 5t22.5 9.5t17.5 20t12 22.5t12 32.5t13 34.5l-197 519h95l108 -300q19 -53 37 -120q17 64 37 119l110 301h88zM265 583h-73l65 137h115z" />
    <glyph glyph-name="thorn" unicode="&#xfe;" 
d="M156 -199h-88v915h88v-252q30 32 60.5 49t81.5 17q100 0 160 -72.5t60 -192.5q0 -126 -64.5 -201t-161.5 -75q-46 0 -75.5 17t-60.5 48v-253zM147 256q0 -94 38.5 -144.5t100.5 -50.5t102 52t40 150q0 93 -38 145.5t-98 52.5q-64 0 -104.5 -56.5t-40.5 -148.5z" />
    <glyph glyph-name="ydieresis" unicode="&#xff;" horiz-adv-x="500" 
d="M491 518l-197 -527l-26 -67.5t-25.5 -53.5t-32 -45t-39 -24.5t-52.5 -10.5t-57 10l-10 83q35 -8 52 -8q18 0 32 5t22.5 9.5t17.5 20t12 22.5t12 32.5t13 34.5l-197 519h95l108 -300q19 -53 37 -120q17 64 37 119l110 301h88zM205 620h-91v100h91v-100zM387 620h-91v100
h91v-100z" />
    <glyph glyph-name="dotlessi" unicode="&#x131;" horiz-adv-x="278" 
d="M183 0h-88v518h88v-518z" />
    <glyph glyph-name="Lslash" unicode="&#x141;" 
d="M73 0v276l-71 -60v82l71 60v358h95v-278l162 138v-82l-162 -137v-273h355v-84h-450z" />
    <glyph glyph-name="lslash" unicode="&#x142;" horiz-adv-x="222" 
d="M66 0v281l-63 -54v77l63 53v359h88v-284l66 56v-77l-66 -56v-355h-88z" />
    <glyph glyph-name="OE" unicode="&#x152;" horiz-adv-x="1000" 
d="M547 619v97h406v-84h-317v-219h292v-84h-292v-245h332v-84h-421v103q-67 -115 -194 -115q-136 0 -213 99t-77 272t75.5 271t212.5 98q130 0 196 -109zM351 652q-85 0 -137.5 -75t-52.5 -217q0 -145 51.5 -220.5t138.5 -75.5q88 0 139.5 76t51.5 220q0 141 -52 216.5
t-139 75.5z" />
    <glyph glyph-name="oe" unicode="&#x153;" horiz-adv-x="944" 
d="M673 530q99 0 165.5 -73.5t66.5 -204.5v-16h-383q1 -79 44 -127t111 -48q101 0 133 108l88 -13q-22 -82 -79.5 -124.5t-143.5 -42.5q-135 0 -200 97q-73 -97 -199 -97q-106 0 -172 71t-66 203q0 121 66 194t172 73q142 0 199 -99q67 99 198 99zM128 260q0 -96 42 -147.5
t110 -51.5t110 54.5t42 158.5q0 80 -42 132t-110 52t-110 -54t-42 -144zM525 309h287q-6 73 -44.5 111t-96.5 38t-99 -39t-47 -110z" />
    <glyph glyph-name="Scaron" unicode="&#x160;" horiz-adv-x="667" 
d="M593 514l-91 -6q-8 69 -49.5 102t-124.5 33q-77 0 -120.5 -28.5t-43.5 -77.5q0 -66 69 -86q80 -24 202 -53q81 -18 130 -70t49 -126q0 -90 -71.5 -152t-193.5 -62q-144 0 -223 66t-81 176l90 8q5 -41 17.5 -68t40.5 -50q59 -47 153 -47q83 0 130.5 34t47.5 92
q0 80 -128 110q-111 27 -175 46q-67 19 -107 66t-40 110q0 87 67.5 142t182.5 55q123 0 193.5 -57t75.5 -157zM287 901l56 -83l53 83h100l-110 -137h-93l-106 137h100z" />
    <glyph glyph-name="scaron" unicode="&#x161;" horiz-adv-x="500" 
d="M442 385l-86 -12q-12 85 -113 85q-53 0 -82.5 -18t-29.5 -50q0 -30 34 -47.5t82.5 -28t97.5 -24.5t83 -48.5t34 -88.5q0 -69 -56 -116.5t-146 -47.5q-103 0 -158.5 40t-70.5 126l87 13q15 -107 134 -107q57 0 88.5 23.5t31.5 58.5q0 27 -24 44t-60.5 25t-78.5 20
t-78.5 26t-60.5 45.5t-24 77.5q0 65 51.5 107t140.5 42q102 0 156 -48q38 -33 48 -97zM203 720l56 -83l53 83h100l-110 -137h-93l-106 137h100z" />
    <glyph glyph-name="Ydieresis" unicode="&#x178;" horiz-adv-x="667" 
d="M374 0h-95v303l-276 413h116l140 -216q41 -63 73 -121q28 49 79 127l138 210h110l-285 -413v-303zM289 801h-91v100h91v-100zM471 801h-91v100h91v-100z" />
    <glyph glyph-name="Zcaron" unicode="&#x17d;" horiz-adv-x="611" 
d="M584 0h-566v88l367 458q45 55 74 86h-400v84h513v-84l-402 -497l-43 -51h457v-84zM259 901l56 -83l53 83h100l-110 -137h-93l-106 137h100z" />
    <glyph glyph-name="zcaron" unicode="&#x17e;" horiz-adv-x="500" 
d="M479 0h-459v71l330 379q-77 -5 -99 -5h-211v73h424v-57l-281 -329l-31.5 -35.5t-23.5 -25.5q62 5 111 5h240v-76zM203 720l56 -83l53 83h100l-110 -137h-93l-106 137h100z" />
    <glyph glyph-name="florin" unicode="&#x192;" 
d="M354 452l-93 -535q-12 -69 -41 -97.5t-89 -28.5q-50 0 -106 11l17 76q48 -11 76 -11q22 0 35.5 12t17.5 25.5t8 37.5l86 510h-98l12 66h98l12 66q13 74 41.5 109.5t101.5 35.5q30 0 101 -19l-18 -75q-60 13 -78 13q-31 0 -42.5 -19t-18.5 -60l-9 -51h99l-12 -66h-100z
" />
    <glyph glyph-name="circumflex" unicode="&#x2c6;" horiz-adv-x="333" 
d="M221 583l-53 83l-56 -83h-100l106 137h93l110 -137h-100z" />
    <glyph glyph-name="caron" unicode="&#x2c7;" horiz-adv-x="333" 
d="M120 720l56 -83l53 83h100l-110 -137h-93l-106 137h100z" />
    <glyph glyph-name="uni02C9" unicode="&#x2c9;" horiz-adv-x="333" 
d="M319 599h-305v73h305v-73z" />
    <glyph glyph-name="breve" unicode="&#x2d8;" horiz-adv-x="333" 
d="M22 715h60q14 -66 84 -66t84 66h61q-7 -62 -45.5 -94.5t-98.5 -32.5q-62 0 -100 32.5t-45 94.5z" />
    <glyph glyph-name="dotaccent" unicode="&#x2d9;" horiz-adv-x="333" 
d="M221 583h-109v109h109v-109z" />
    <glyph glyph-name="ring" unicode="&#x2da;" horiz-adv-x="333" 
d="M79 653q0 35 25.5 61.5t63.5 26.5q35 0 61 -26.5t26 -63.5t-25.5 -63t-62.5 -26t-62.5 26t-25.5 65zM116 653q0 -23 15.5 -38.5t36.5 -15.5q22 0 36.5 15.5t14.5 37.5t-14.5 37.5t-36.5 15.5t-37 -15.5t-15 -36.5z" />
    <glyph glyph-name="ogonek" unicode="&#x2db;" horiz-adv-x="333" 
d="M303 -120v-58q-56 -29 -96 -29q-57 0 -87 28.5t-30 78.5q0 49 19 112h61q-19 -43 -19 -78t20 -56t53 -21t79 23z" />
    <glyph glyph-name="tilde" unicode="&#x2dc;" horiz-adv-x="333" 
d="M104 642q-15 0 -25.5 -11.5t-10.5 -29.5v-6h-65v10q0 41 27.5 71.5t72.5 30.5q27 0 69.5 -20.5t58.5 -20.5q17 0 24.5 9.5t10.5 32.5h64q-2 -55 -28 -83t-66 -28q-32 0 -74 22.5t-58 22.5z" />
    <glyph glyph-name="hungarumlaut" unicode="&#x2dd;" horiz-adv-x="333" 
d="M98 583h-70l59 137h114zM271 583h-74l62 137h113z" />
    <glyph glyph-name="uni03A9" unicode="&#x3a9;" horiz-adv-x="713" 
d="M658 0h-235v75q140 126 140 300q0 115 -54.5 186.5t-153.5 71.5q-96 0 -155 -72t-59 -187q0 -176 141 -299v-75h-235v75h152q-154 123 -154 315q0 140 87 231t224 91q142 0 222.5 -88.5t80.5 -231.5q0 -105 -44.5 -185t-110.5 -132h154v-75z" />
    <glyph glyph-name="uni03BC" unicode="&#x3bc;" 
d="M409 0v61q-24 -36 -53 -55t-79 -19q-30 0 -54.5 10.5t-37.5 22.5t-29 32v-251h-88v717h88v-252q0 -102 16 -134q31 -64 101 -64q69 0 105 56q22 34 22 140v254h88v-518h-79z" />
    <glyph glyph-name="pi" unicode="&#x3c0;" horiz-adv-x="658" 
d="M595 69l17 -61q-29 -16 -74 -16q-64 0 -94.5 38.5t-30.5 100.5v300h-163v-292q0 -82 -15 -139h-93q17 57 17 145v286q-54 0 -100 -23l-25 61q58 31 147 31h428v-69h-106v-289q0 -81 59 -81q13 0 33 8z" />
    <glyph glyph-name="endash" unicode="&#x2013;" 
d="M562 223h-568v73h568v-73z" />
    <glyph glyph-name="emdash" unicode="&#x2014;" horiz-adv-x="1000" 
d="M1006 223h-1012v73h1012v-73z" />
    <glyph glyph-name="quoteleft" unicode="&#x2018;" horiz-adv-x="222" 
d="M112 595h47v-100h-95v102q0 95 81 131l21 -34q-30 -12 -41 -36.5t-13 -62.5z" />
    <glyph glyph-name="quoteright" unicode="&#x2019;" horiz-adv-x="222" 
d="M77 482l-22 34q50 22 54 100h-46v100h95v-103q0 -95 -81 -131z" />
    <glyph glyph-name="quotesinglbase" unicode="&#x201a;" horiz-adv-x="222" 
d="M109 0h-46v100h95v-101q0 -95 -81 -131l-22 34q51 22 54 98z" />
    <glyph glyph-name="quotedblleft" unicode="&#x201c;" horiz-adv-x="333" 
d="M88 595h47v-100h-95v102q0 95 81 131l21 -34q-30 -12 -41 -36.5t-13 -62.5zM240 595h46v-100h-95v102q0 95 81 131l22 -34q-30 -12 -41 -36.5t-13 -62.5z" />
    <glyph glyph-name="quotedblright" unicode="&#x201d;" horiz-adv-x="333" 
d="M56 482l-22 34q50 22 54 100h-46v100h95v-103q0 -95 -81 -131zM207 482l-22 34q50 20 54 100h-46v100h95v-103q0 -95 -81 -131z" />
    <glyph glyph-name="quotedblbase" unicode="&#x201e;" horiz-adv-x="333" 
d="M88 0h-46v100h95v-101q0 -95 -81 -131l-22 34q51 22 54 98zM239 0h-46v100h95v-101q0 -95 -81 -131l-22 34q51 20 54 98z" />
    <glyph glyph-name="dagger" unicode="&#x2020;" 
d="M321 -169h-88v593h-195v76h195v199h88v-199h196v-76h-196v-593z" />
    <glyph glyph-name="daggerdbl" unicode="&#x2021;" 
d="M322 -169h-88v182h-196v76h196v357h-196v76h196v184h88v-184h197v-76h-197v-357h197v-76h-197v-182z" />
    <glyph glyph-name="bullet" unicode="&#x2022;" horiz-adv-x="350" 
d="M51 351q0 51 36.5 87t87.5 36t87 -36t36 -87t-36 -87.5t-87 -36.5t-87.5 36.5t-36.5 87.5z" />
    <glyph glyph-name="ellipsis" unicode="&#x2026;" horiz-adv-x="1000" 
d="M217 0h-100v100h100v-100zM551 0h-100v100h100v-100zM884 0h-100v100h100v-100z" />
    <glyph glyph-name="perthousand" unicode="&#x2030;" horiz-adv-x="1000" 
d="M19 543q0 90 36 137.5t103 47.5q66 0 103 -47t37 -137q0 -195 -139 -195q-67 0 -103.5 50t-36.5 144zM91 539q0 -65 16 -97t54 -32q65 0 65 128q0 129 -68 129q-37 0 -52 -32t-15 -96zM514 728l-293 -754h-65l294 754h64zM373 165q0 90 36 139t103 49q66 0 103.5 -48
t37.5 -138q0 -193 -140 -193q-67 0 -103.5 48.5t-36.5 142.5zM445 161q0 -64 16 -95t54 -31q66 0 66 126q0 131 -67 131q-69 0 -69 -131zM702 165q0 90 36.5 139t103.5 49q66 0 103 -48t37 -138q0 -193 -140 -193q-67 0 -103.5 48.5t-36.5 142.5zM774 161q0 -64 16 -95
t54 -31q66 0 66 126q0 131 -68 131q-37 0 -52.5 -33t-15.5 -98z" />
    <glyph glyph-name="guilsinglleft" unicode="&#x2039;" horiz-adv-x="333" 
d="M271 481l-130 -224l130 -222h-73l-154 222l154 224h73z" />
    <glyph glyph-name="guilsinglright" unicode="&#x203a;" horiz-adv-x="333" 
d="M61 35l129 224l-129 222h73l154 -222l-154 -224h-73z" />
    <glyph glyph-name="fraction" unicode="&#x2044;" horiz-adv-x="167" 
d="M-145 -28h-77l538 756h76z" />
    <glyph glyph-name="Euro" unicode="&#x20ac;" 
d="M541 688l-20 -90q-60 49 -135 49q-57 0 -102.5 -20.5t-71 -52t-39.5 -61.5t-17 -56h333l-13 -66h-328v-19v-45h314l-13 -66h-291q17 -85 72 -138.5t148 -53.5q90 0 143 48v-101q-62 -28 -135 -28q-141 0 -218.5 70.5t-106.5 202.5h-75l14 66h51q-1 22 -1 64h-64l14 66h57
q24 126 113 198.5t218 72.5q90 0 153 -40z" />
    <glyph glyph-name="litre" unicode="&#x2113;" horiz-adv-x="495" 
d="M409 51q-65 -65 -134 -65q-56 0 -88 34q-38 40 -38 121v102l-57 -62l-19.5 25t-14.5 18l91 98v224q0 89 35 135.5t94 46.5q52 0 77 -34t25 -76q0 -118 -114 -261l-16 -20l-17 -21v-171q0 -92 62 -92q40 0 84 48zM321 608q0 22 -9.5 37.5t-27.5 15.5q-51 0 -51 -107v-154
l20 26q68 100 68 182z" />
    <glyph glyph-name="trademark" unicode="&#x2122;" horiz-adv-x="1000" 
d="M305 318h-66v339h-129v59h325v-59h-130v-339zM540 318h-60v398h98l100 -318l97 318h96v-398h-61v334l-102 -334h-60l-108 339v-339z" />
    <glyph glyph-name="Omega" unicode="&#x2126;" horiz-adv-x="713" 
d="M658 0h-235v75q140 126 140 300q0 115 -54.5 186.5t-153.5 71.5q-96 0 -155 -72t-59 -187q0 -176 141 -299v-75h-235v75h152q-154 123 -154 315q0 140 87 231t224 91q142 0 222.5 -88.5t80.5 -231.5q0 -105 -44.5 -185t-110.5 -132h154v-75z" />
    <glyph glyph-name="estimated" unicode="&#x212e;" horiz-adv-x="662" 
d="M613 291h-449v-200q65 -65 159 -65q136 0 215 132l36 -22q-49 -73 -107 -110.5t-144 -37.5q-127 0 -205.5 87t-78.5 216q0 130 77.5 217t207.5 87q131 0 208 -86t81 -218zM484 329v162q-67 67 -161 67q-96 0 -159 -66v-163h320z" />
    <glyph glyph-name="partialdiff" unicode="&#x2202;" horiz-adv-x="579" 
d="M536 480q0 -95 -25 -191q-15 -59 -39.5 -110.5t-58.5 -95t-81 -69t-101 -25.5q-82 0 -133.5 53t-51.5 139q0 141 80 228.5t183 87.5q48 0 82.5 -20t49.5 -50h2q5 33 5 66q0 81 -35.5 123t-100.5 42q-52 0 -96 -26q-8 20 -22 62q54 34 130 34q98 0 155 -64.5t57 -183.5z
M432 348q-11 37 -39.5 60t-72.5 23q-73 0 -128 -74.5t-55 -179.5q0 -53 26 -85t70 -32q69 0 122 79.5t77 208.5z" />
    <glyph glyph-name="Delta" unicode="&#x2206;" horiz-adv-x="612" 
d="M607 0h-581v43l233 657h118l230 -657v-43zM499 76l-167 483q-5 15 -10.5 35.5t-5.5 22.5h-3q-3 -13 -15 -57l-169 -484h370z" />
    <glyph glyph-name="product" unicode="&#x220f;" horiz-adv-x="722" 
d="M640 -230h-92v851h-373v-851h-92v930h557v-930z" />
    <glyph glyph-name="summation" unicode="&#x2211;" horiz-adv-x="634" 
d="M591 -230h-568v44l319 425l-298 411v50h523v-75h-407l279 -384l-297 -396h449v-75z" />
    <glyph glyph-name="minus" unicode="&#x2212;" horiz-adv-x="584" 
d="M529 395v-84h-473v84h473z" />
    <glyph glyph-name="uni2215" unicode="&#x2215;" horiz-adv-x="167" 
d="M-145 -28h-77l538 756h76z" />
    <glyph glyph-name="uni2219" unicode="&#x2219;" horiz-adv-x="278" 
d="M189 302h-100v100h100v-100z" />
    <glyph glyph-name="radical" unicode="&#x221a;" horiz-adv-x="518" 
d="M522 729l-190 -741h-74l-135 333q-7 -5 -55 -34l-29 50l124 78l131 -321l162 635h66z" />
    <glyph glyph-name="infinity" unicode="&#x221e;" horiz-adv-x="787" 
d="M737 294q0 -72 -45.5 -120.5t-118.5 -48.5q-56 0 -103 30.5t-79 79.5h-2q-75 -110 -178 -110q-73 0 -120.5 46t-47.5 119q0 75 47 121.5t119 46.5q107 0 180 -110h2q30 45 75.5 77.5t103.5 32.5q72 0 119.5 -46t47.5 -118zM663 293q0 43 -25 71t-72 28q-76 0 -140 -100
q58 -101 140 -101q48 0 72.5 29t24.5 73zM355 292q-27 45 -64.5 72.5t-76.5 27.5q-47 0 -72 -29t-25 -73q0 -43 27.5 -71.5t70.5 -28.5q76 0 140 102z" />
    <glyph glyph-name="integral" unicode="&#x222b;" horiz-adv-x="493" 
d="M411 669q-22 9 -45 9q-79 0 -79 -97v-635q0 -81 -41.5 -128t-117.5 -47q-43 0 -75 12l18 68q22 -9 45 -9q80 0 80 96v636q0 81 41 128t119 47q48 0 74 -14q-3 -11 -9.5 -33t-9.5 -33z" />
    <glyph glyph-name="approxequal" unicode="&#x2248;" horiz-adv-x="584" 
d="M524 421q-56 -86 -134 -86q-54 0 -105 31q-51 32 -87 32q-45 0 -83 -65l-54 62q28 41 59 63.5t75 22.5q53 0 104 -31q53 -32 88 -32q45 0 83 65zM524 197q-57 -86 -134 -86q-54 0 -105 31q-48 32 -87 32q-45 0 -83 -65l-54 62q57 86 134 86q53 0 104 -31q53 -32 88 -32
q45 0 83 65z" />
    <glyph glyph-name="notequal" unicode="&#x2260;" horiz-adv-x="584" 
d="M500 143h-233l-52 -117h-90l53 117h-94v83h131l64 141h-195v83h232l57 127h89l-57 -127h95v-83h-132l-64 -141h196v-83z" />
    <glyph glyph-name="lessequal" unicode="&#x2264;" horiz-adv-x="584" 
d="M500 0h-416v83h416v-83zM500 138l-416 186v70l416 185v-88l-306 -132v-2l306 -131v-88z" />
    <glyph glyph-name="greaterequal" unicode="&#x2265;" horiz-adv-x="584" 
d="M500 0h-416v83h416v-83zM500 324l-416 -185v88l306 131v3l-306 131v88l416 -186v-70z" />
    <glyph glyph-name="lozenge" unicode="&#x25ca;" horiz-adv-x="563" 
d="M500 350l-204 -350h-46l-204 349l204 351h46zM427 350l-154 264l-154 -264l154 -264z" />
    </font>
</defs>
</svg>
